<?xml version="1.0" encoding="UTF-8" standalone="no"?>
<!-- Created with Inkscape (http://www.inkscape.org/) -->

<svg
   version="1.1"
   id="svg1"
   width="2000"
   height="2000"
   viewBox="0 0 2000 2000"
   sodipodi:docname="WhatsApp Bild 2024-06-02 um 10.50.54_90f1404b copy.svg"
   inkscape:version="1.3 (0e150ed6c4, 2023-07-21)"
   xmlns:inkscape="http://www.inkscape.org/namespaces/inkscape"
   xmlns:sodipodi="http://sodipodi.sourceforge.net/DTD/sodipodi-0.dtd"
   xmlns="http://www.w3.org/2000/svg"
   xmlns:svg="http://www.w3.org/2000/svg">
  <defs
     id="defs1">
    <rect
       x="721.74749"
       y="1179.9622"
       width="678.22105"
       height="116.3343"
       id="rect1" />
  </defs>
  <sodipodi:namedview
     id="namedview1"
     pagecolor="#ffffff"
     bordercolor="#000000"
     borderopacity="0.25"
     inkscape:showpageshadow="2"
     inkscape:pageopacity="0.0"
     inkscape:pagecheckerboard="0"
     inkscape:deskcolor="#d1d1d1"
     inkscape:zoom="0.63179991"
     inkscape:cx="994.77697"
     inkscape:cy="934.63135"
     inkscape:window-width="3840"
     inkscape:window-height="2068"
     inkscape:window-x="-12"
     inkscape:window-y="-12"
     inkscape:window-maximized="1"
     inkscape:current-layer="g1" />
  <g
     inkscape:groupmode="layer"
     inkscape:label="Image"
     id="g1">
    <path
       style="fill:#000000"
       d="m 990.26474,1451.5517 c -93.90976,-7.5016 -181.22893,-37.0019 -259.10245,-87.5365 -5.48438,-3.5589 -10.95586,-6.385 -12.36194,-6.385 -3.85277,0 -27.38839,-4.7226 -42.88006,-8.6043 -62.32411,-15.6161 -98.93478,-42.9543 -109.00309,-81.3957 -0.93634,-3.575 -4.33475,-25.6536 -7.55201,-49.0636 -5.84957,-42.5635 -5.84957,-42.5635 -10.34692,-50.5 -186.60676,-329.30284 25.18556,-754.96871 402.45887,-808.87274 460.66286,-65.81854 796.25506,444.0238 548.10366,832.69654 -2.3738,3.7182 -4.3161,7.7143 -4.3161,8.8804 0,2.1405 25.6319,189.2014 29.9206,218.3594 1.2623,8.5822 0.5895,8.4742 -9.9484,-1.5972 -29.7723,-28.4545 -49.5203,-41.7668 -86.9722,-58.6291 -9.0191,-4.0607 -39.0368,-13.2303 -50,-15.2735 -2.475,-0.4613 -6.525,-1.3113 -9,-1.8888 -4.2104,-0.9825 -4.7575,-0.8612 -8.5,1.8851 -108.3504,79.508 -241.3269,118.2434 -370.49996,107.925 z m 69.49996,-35.4344 c 68.1158,-2.6658 144.13,-23.2313 207.5,-56.1389 14.304,-7.428 43.394,-24.3153 42.8037,-24.8484 -0.1671,-0.1509 -5.2537,-0.5475 -11.3037,-0.8815 -6.05,-0.3339 -15.5,-0.9472 -21,-1.3627 -24.845,-1.8772 -107.7386,-0.1908 -134.5,2.7363 -4.675,0.5113 -14.35,1.4141 -21.5,2.0062 -15.7243,1.302 -51.5946,5.7958 -83.5,10.4607 -21.4136,3.1309 -34.1122,4.682 -73.99996,9.039 -38.0086,4.1516 -89.00083,6.9674 -133.46344,7.3697 -13.72987,0.1243 -25.11198,0.3745 -25.29359,0.5561 -0.57041,0.5705 29.61694,13.5997 44.4193,19.172 58.83707,22.1491 130.91963,34.79 186.83769,32.7653 4.95,-0.1793 15.3,-0.5725 23,-0.8738 z m 432.428,-284.4871 c 13.5837,-26.9473 26.5179,-60.5224 34.6403,-89.9205 4.7056,-17.0312 4.3932,-18.267 -5.8328,-23.0738 -2.6186,-1.2309 -5.0068,-2.6357 -5.3073,-3.1218 -0.3004,-0.4862 -1.6447,-0.8839 -2.9872,-0.8839 -1.3426,0 -2.441,-0.45 -2.441,-1 0,-1.3422 -21.6771,-1.3315 -22.5068,0.011 -0.3437,0.5561 0.6422,2.2812 2.1909,3.8336 3.6839,3.6926 5.7305,7.6326 4.9802,9.5878 -0.9669,2.5197 -2.2414,1.8318 -4.0541,-2.1882 -0.9315,-2.0656 -3.1373,-4.5845 -4.9019,-5.5975 -3.7958,-2.1793 -14.4277,-3.6198 -13.3047,-1.8027 0.5046,0.8164 -0.7716,1.1559 -4.3446,1.1559 -2.7824,0 -5.059,0.45 -5.059,1 0,0.55 -1.0947,1 -2.4326,1 -1.5544,0 -2.6618,0.7221 -3.0674,2 -0.3491,1.1 -1.467,2 -2.4841,2 -1.0171,0 -1.9992,0.4412 -2.1826,0.9804 -0.1833,0.5393 -2.8022,2.2268 -5.8198,3.75 -6.0265,3.0422 -7.9033,6.2696 -3.6458,6.2696 3.3728,0 4.1119,1.5204 1.8424,3.7899 -1.0246,1.0246 -2.1429,2.5925 -2.485,3.4842 -1.1246,2.9305 -6.6327,4.9892 -11.9753,4.4759 -5.9045,-0.5674 -7.1851,1.0933 -3.702,4.8009 2.3008,2.4491 2.3008,2.4491 0.1265,2.4491 -1.7492,0 -2.1743,0.5865 -2.1743,3 0,5.5814 -9.6019,3.8029 -13.7592,-2.5485 -2.8233,-4.3133 -5.7655,-4.7431 -4.802,-0.7015 0.3605,1.5125 1.4525,3.875 2.4267,5.25 6.0851,8.5893 7.3984,13.282 3.0685,10.9647 -1.9153,-1.0251 -2.1498,-0.9694 -1.6293,0.3869 0.954,2.4861 -1.0651,2.9511 -3.0003,0.6909 -2.3653,-2.7624 -3.6388,-2.572 -3.0596,0.4575 0.2628,1.375 0.2929,2.5 0.067,2.5 -1.3217,0 -6.3117,-3.2174 -6.3117,-4.0695 0,-1.2459 -3.219,-0.813 -4.2347,0.5695 -1.3584,1.849 -0.7863,3.174 4.2347,9.8066 5.5686,7.356 5.8823,8.1082 3,7.1934 -1.4193,-0.4505 -2,-0.1797 -2,0.9326 0,1.9976 -1.3886,2.009 -3.0352,0.025 -0.794,-0.9568 -1.635,-1.1874 -2.2151,-0.6073 -1.6648,1.6648 0.9857,4.7799 5.4531,6.4087 19.79,7.2151 24.9003,9.2763 32.5569,13.1312 19.6553,9.8958 37.2013,24.0539 45.301,36.5539 4.1252,6.3662 5.9218,4.802 14.8673,-12.9441 z m -621.92801,-25.4431 c 1.375,-0.1659 4.57984,-0.3591 7.12186,-0.4293 4.0254,-0.1111 5.76759,-0.9709 13.5,-6.6625 4.88298,-3.5942 9.94981,-7.3017 11.25962,-8.2388 1.30982,-0.9372 3.41216,-1.5689 4.67187,-1.4038 1.25971,0.1651 3.33804,-0.6002 4.61851,-1.7006 1.28048,-1.1004 3.40949,-2.928 4.73115,-4.0613 1.32166,-1.1333 3.62905,-2.0606 5.12755,-2.0606 1.49851,0 3.29378,-0.6859 3.9895,-1.5242 1.72333,-2.0765 2.39949,-1.1282 1.02578,1.4386 -1.60697,3.0026 0.95096,2.7824 3.87862,-0.334 2.51778,-2.68 7.78329,-5.206 8.77819,-4.2111 0.3512,0.3512 -0.3382,1.6783 -1.532,2.9491 -3.72117,3.961 -0.1391,4.9037 9.8294,2.5868 7.5315,-1.7504 10.4531,-1.9584 9.1456,-0.6508 -1.766,1.766 -1.3583,3.7456 0.7714,3.7456 2.9682,0 10.3022,3.4424 15.8962,7.4613 5.6335,4.0473 4.6859,4.1007 51.18676,-2.8861 18.1058,-2.7205 62.3307,-7.8986 82,-9.6011 41.9769,-3.6333 58.8345,-4.6547 91.8636,-5.5657 25.3637,-0.6995 25.3637,-0.6995 24.8848,-4.9484 -0.5968,-5.2949 -6.1064,-16.7837 -9.6041,-20.0271 -1.4431,-1.3381 -2.2212,-2.4329 -1.7291,-2.4329 1.4284,0 -2.6489,-4.0695 -5.6132,-5.6024 -5.1468,-2.6615 -5.7019,-2.0832 -4.1771,4.3524 1.6148,6.8158 0.565,13.8482 -2.8774,19.2753 -2.2039,3.4747 -2.2039,3.4747 -2.8854,-2.0253 -1.4909,-12.034 -3.2908,-17.5005 -7.1614,-21.75 -3.6813,-4.0417 -4.6437,-2.958 -4.0165,4.5228 0.5317,6.3426 0.3341,7.2478 -3.1116,14.25 -6.1016,12.3996 -9.6527,14.4971 -7.5716,4.4722 2.3625,-11.3798 -1.0711,-23.6504 -8.8826,-31.7441 -3.7115,-3.8456 -5.6559,-4.6383 -6.3404,-2.5848 -0.2527,0.7581 -0.8943,0.55 -1.8334,-0.5948 -4.7208,-5.7545 -10.5927,-11.5713 -11.6808,-11.5713 -0.6951,0 -1.2638,-0.4169 -1.2638,-0.9265 0,-0.5095 -2.5133,-2.1561 -5.5852,-3.659 -3.4065,-1.6666 -5.9324,-3.6458 -6.4753,-5.0735 -0.7714,-2.029 -1.5645,-2.341 -5.9499,-2.341 -4.7501,0 -4.9944,0.1225 -3.9896,2 0.8868,1.6569 0.7641,1.9901 -0.7148,1.9424 -2.2692,-0.073 -14.4411,-3.2615 -15.8386,-4.1487 -0.5793,-0.3678 -3.9543,-0.6973 -7.5,-0.7323 -33.2653,-0.3282 -45.0696,-0.1948 -61.6598,0.6968 -10.986,0.5904 -21.4771,1.6819 -24.5001,2.5491 -10.2023,2.9266 -13.54106,3.6927 -16.09366,3.6927 -1.4163,0 -2.8313,0.4147 -3.1445,0.9215 -2.299,3.7198 -35.2396,1.6423 -42.0485,-2.6519 -8.4652,-5.3388 -13.3262,-14.41994 -11.981,-22.38224 0.433,-2.5632 0.2812,-3.8874 -0.4458,-3.8874 -2.0092,0 -5.13209,-6.3192 -4.52462,-9.1555 0.43798,-2.0449 -0.10491,-3.3446 -2.36107,-5.6526 -1.6114,-1.6485 -3.77531,-4.8294 -4.80869,-7.0688 -2.44629,-5.3011 -4.87562,-5.5716 -4.04455,-0.4503 0.531,3.2721 0.45071,3.463 -0.73594,1.75 -0.73257,-1.0576 -1.65962,-5.0248 -2.06011,-8.8162 -0.40049,-3.7914 -1.36044,-8.6854 -2.13322,-10.8757 -0.77278,-2.1903 -1.40505,-6.4008 -1.40505,-9.3566 0,-5.1311 -1.68759,-7.3068 -3.45245,-4.4512 -0.31377,0.5076 -2.02782,1.2368 -3.80902,1.6204 -12.3776,2.6654 -23.73853,15.6488 -23.73853,27.1288 0,3.9091 -1.83231,4.1766 -3.48874,0.5093 -2.62033,-5.8014 -4.61306,2.7321 -2.19669,9.4069 0.77882,2.1513 1.75175,4.7041 2.16207,5.6728 0.57447,1.3563 0.37548,1.6192 -0.8653,1.1431 -2.17491,-0.8346 -2.14577,2.3476 0.0436,4.7669 1.54246,1.7044 1.53788,1.8287 -0.0674,1.8287 -1.2418,0 -1.55279,0.5343 -1.11459,1.915 1.1448,3.6069 -0.4719,7.3334 -2.85221,6.5744 -7.55483,-2.4093 -9.47413,-1.2357 -7.45437,4.5582 1.8663,5.35364 -0.55819,5.88894 -3.70197,0.8173 -3.86912,-6.2417 -7.51585,-9.8649 -9.92904,-9.8649 -1.14973,0 -3.09054,-0.7005 -4.31291,-1.5567 -3.00512,-2.1049 -2.86892,-0.1573 0.27749,3.9678 1.375,1.8027 2.5,3.5727 2.5,3.9333 0,1.0485 -3.81981,0.7562 -4.5,-0.3444 -0.33992,-0.55 -2.02567,-1 -3.74611,-1 -3.12807,0 -3.12807,0 -0.44098,2.8047 3.05377,3.1875 3.33895,4.1953 1.18709,4.1953 -2.21211,0 -1.82424,2.10244 0.5,2.71034 2.88841,0.7553 2.45854,2.2339 -1,3.4395 -4.33697,1.5119 -3.98757,4.543 0.75,6.5063 2.0625,0.8548 3.96197,1.7563 4.22104,2.0034 0.7147,0.6817 -2.23735,2.3078 -4.22104,2.3252 -0.9625,0.01 -2.70703,0.9723 -3.87674,2.142 -2.17011,2.1701 -8.55548,2.2634 -17.27188,0.2521 -1.90107,-0.4386 -2.67738,-0.3108 -2.25575,0.3714 1.93364,3.1287 -2.98953,1.6619 -7.93088,-2.3628 -5.7088,-4.6499 -7.41672,-5.1281 -5.49577,-1.5388 2.2459,4.1965 -0.75598,4.5189 -3.75407,0.4032 -1.10105,-1.5115 -2.29304,-2.457 -2.64888,-2.1012 -1.02725,1.0273 5.34559,12.8261 8.30221,15.371 3.58836,3.0886 2.38782,3.9028 -3.79846,2.5761 -6.52882,-1.4002 -9.01978,-1.3886 -9.01978,0.042 0,1.8873 3.30173,3.7946 6.62756,3.8284 1.72015,0.017 3.68775,0.7068 4.37244,1.5318 0.8601,1.0364 0.89795,1.5 0.12244,1.5 -2.13387,0 -1.11361,1.7854 1.37756,2.4106 5.50263,1.3811 1.00991,4.4405 -6.96374,4.7421 -2.96035,0.112 -6.1163,-0.691 -9.80096,-2.4938 -6.60905,-3.2335 -6.7353,-3.2396 -6.7353,-0.3279 0,1.4344 0.91934,2.8231 2.38993,3.6101 1.31446,0.7035 2.90596,2.2433 3.53666,3.4217 0.63071,1.1785 2.48024,2.9081 4.11008,3.8435 4.42438,2.5392 3.72693,3.9421 -1.78667,3.5938 -4.40586,-0.2784 -4.73274,-0.1371 -4.51179,1.9499 0.31457,2.9713 -1.47276,2.8572 -3.91687,-0.25 -5.26584,-6.6944 -7.3271,-1.9134 -2.31588,5.3716 9.22322,13.4082 14.59689,39.2428 8.49454,40.8387 -4.01196,1.0491 -1.83879,2.2062 4.75,2.5291 7.48742,0.3669 67.3003,-0.206 71.25,-0.6825 z m 441.92091,-35.9591 c 2.3611,-7.7307 2.4327,-7.484 -2.6896,-9.2681 -4.7332,-1.6485 -7.3009,-1.6779 -6.9813,-0.08 1.1152,5.5762 -17.0781,-4.661 -22.626,-12.7313 -1.4496,-2.1087 -2.0712,-2.421 -2.7347,-1.3738 -0.7068,1.1153 -0.8614,1.0986 -0.874,-0.095 -0.045,-4.2608 -1.9483,1.2932 -2.2104,6.45 -0.3467,6.8226 -1.643,7.4619 -3.7532,1.8509 -0.7966,-2.118 -1.7417,-4.0759 -2.1003,-4.3509 -0.3586,-0.275 -1.1852,-1.5125 -1.8369,-2.75 -2.614,-4.9637 -3.7488,-2.6338 -3.299,6.7733 0.4992,10.4417 -1.1105,18.1613 -3.6991,17.7398 -0.889,-0.1447 -1.6164,0.4119 -1.6164,1.2369 0,1.0307 1.095,1.5277 3.5,1.5886 11.0131,0.279 36.361,1.6871 41.5,2.3055 7.2537,0.8729 6.8244,1.2053 9.4209,-7.2963 z M 1092.2119,768.02356 c 1.346,-1.9761 3.4891,-3.989 4.7623,-4.4731 1.2733,-0.4841 2.8093,-1.9648 3.4132,-3.2904 0.604,-1.3256 2.1735,-2.9857 3.4878,-3.6891 1.3142,-0.7033 2.3895,-1.6528 2.3895,-2.1098 0,-0.4571 0.8654,-0.831 1.923,-0.831 1.0577,0 3.6452,-1.7367 5.75,-3.8593 4.689,-4.7285 7.2788,-6.1407 11.2613,-6.1407 1.6861,0 3.0657,-0.45 3.0657,-1 0,-0.55 0.4339,-1 0.9642,-1 1.0472,0 13.0358,-12.005 13.0358,-13.0537 0,-0.5624 1.2419,-2.2211 4.9858,-6.6588 0.5625,-0.6668 1.5431,-2.3543 2.179,-3.75 0.6359,-1.3956 1.759,-2.5375 2.4957,-2.5375 0.7367,0 1.3395,-0.9 1.3395,-2 0,-2.1328 0.4655,-2.2864 6.1467,-2.0279 3.5604,0.1619 3.688,0.04 5.3892,-5.1531 2.6518,-8.0949 6.9481,-15.8405 11.5009,-20.7345 2.2592,-2.4284 7.2375,-8.7284 11.0628,-14 3.8254,-5.2715 9.4258,-12.5095 12.4453,-16.0845 8.8539,-10.4827 9.0725,-10.8231 17.0048,-26.484 4.1741,-8.2412 7.9388,-15.2162 8.3659,-15.5 0.427,-0.2838 1.0908,-1.7994 1.4751,-3.368 0.6713,-2.7408 8.6951,-11.648 10.4927,-11.648 2.3752,0 3.1316,3.7229 3.6749,18.0876 0.3206,8.4768 0.9746,16.7624 1.4533,18.4124 8.5747,29.5537 11.9259,33.1251 21.011,22.3916 1.9126,-2.2596 3.9274,-4.6336 4.4774,-5.2757 0.55,-0.642 2.075,-3.2932 3.389,-5.8916 1.3139,-2.5984 2.7406,-4.7243 3.1705,-4.7243 0.4299,0 1.0848,-1.3805 1.4553,-3.0676 0.8374,-3.8127 2.9511,-4.7258 5.5322,-2.3899 3.1079,2.8126 5.9159,0.9534 17.2774,-11.4397 3.527,-3.8472 4.6183,-10.5186 4.679,-28.6028 0.056,-16.658 4.2361,-33.0164 9.2495,-36.1964 2.5654,-1.6273 5.064,-7.892 4.348,-10.9018 -2.1356,-8.9766 -2.5164,-11.3584 -2.5423,-15.9018 -0.041,-7.23209 3.2959,-16.13771 7.9822,-20.00241 6.0363,-4.97805 -0.994,-9.62271 -6.8549,-14.38174 -28.3638,-22.06688 -52.3079,-40.02822 -149.9257,-76.67139 -132.3197,-49.66934 -388.816,-17.30708 -538.68952,180.31814 -23.54517,31.04697 9.6673,21.87543 8.67931,21.0707 -1.60131,-0.7117 -5.03481,-6.5771 -5.74623,-9.8162 -0.41119,-1.8721 -1.36775,-4.024 -2.12569,-4.7819 -1.37958,-1.3796 -1.40895,-2.02158 0.73367,-3.81033 1.0853,-0.90605 4.07746,-0.67887 5.27763,1.74173 0.70225,1.4163 2.22868,2.4577 3.88379,2.6498 1.49976,0.174 2.72683,0.7365 2.72683,1.25 0,0.5134 1.125,0.9336 2.5,0.9336 1.375,0 2.5,0.45 2.5,1 0,0.55 1.575,1 3.5,1 1.925,0 3.5,0.45 3.5,1 0,1.6273 13.89804,1.2448 15.57143,-0.4286 2.59307,-2.5931 1.50276,-4.2095 -4.82143,-7.148 -6.25,-2.9041 -6.25,-2.9041 3.16643,-3.2035 6.43132,-0.2045 9.64696,0.074 10.14363,0.8772 0.45691,0.7393 1.7889,0.9233 3.58357,0.495 1.571,-0.3749 4.43137,-1.0335 6.35637,-1.4635 3.24194,-0.7242 9.10292,-3.0324 13.23643,-5.2127 0.95504,-0.5038 2.42364,-0.9159 3.26357,-0.9159 0.83993,0 2.42103,-0.45 3.51357,-1 1.09254,-0.55 2.88032,-1.45 3.97286,-2 1.09254,-0.55 2.66754,-1 3.5,-1 0.83246,0 1.51708,-0.3375 1.52137,-0.75 0.01,-0.9241 4.87457,-3.25 6.79764,-3.25 0.7737,0 2.21869,-1.0323 3.21109,-2.2939 1.9164,-2.4363 11.78712,-7.7061 14.43409,-7.7061 0.86708,0 2.35791,-0.4122 3.31295,-0.916 8.6542,-4.5649 19.37988,-5.8466 30.35578,-3.6275 3.40474,0.6884 3.68332,0.5483 4.69798,-2.3624 1.0485,-3.0077 6.18267,-4.7467 6.18267,-2.0941 0,0.55 0.9,1 2,1 1.1,0 2,0.45 2,1 0,2.2155 2.97249,0.7492 7.60714,-3.7527 2.69107,-2.6139 9.84286,-9.5028 15.89286,-15.3085 10.33319,-9.9161 14.5,-14.3476 14.5,-15.421 0,-0.2527 1.28307,-2.385 2.85127,-4.7386 6.1004,-9.1556 10.71797,-16.40682 12.27699,-19.27925 0.89555,-1.65 4.38014,-7.95 7.74354,-14 3.3634,-6.05 6.11818,-11.35408 6.12173,-11.78685 0.0158,-1.91912 12.16294,-25.48846 14.41165,-27.96315 4.27757,-4.70743 7.97408,-2.29612 9.59674,6.26015 1.55302,8.18902 4.83083,31.33621 5.94607,41.98985 0.54696,5.225 1.47196,14 2.05557,19.50005 1.33976,12.6262 2.62144,17.7255 6.03223,24 1.49491,2.75 3.03416,6.4625 3.42057,8.25 0.3864,1.7875 1.04456,3.25 1.46258,3.25 0.41802,0 1.31076,1.2087 1.98388,2.686 0.67312,1.4774 2.58081,4.3994 4.2393,6.4934 1.65849,2.094 3.43312,5.32 3.94363,7.169 1.08201,3.9186 4.03882,7.6516 6.06079,7.6516 0.77657,0 2.06062,0.9 2.85346,2 0.79284,1.1 1.78703,2 2.20933,2 1.24475,0 4.79067,3.3506 4.79067,4.5268 0,0.5953 1.54431,2.7683 3.4318,4.829 1.88749,2.0606 3.7316,5.1861 4.09804,6.9454 0.78211,3.7551 5.15831,11.6988 6.44491,11.6988 0.4898,0 1.1761,0.9 1.5253,2 0.3491,1.1 1.2794,2 2.0673,2 0.788,0 1.4327,0.4714 1.4327,1.0476 0,1.6475 9.7296,10.9524 11.4523,10.9524 0.881,0 1.5477,0.8615 1.5477,2 0,1.1 0.5625,2.0134 1.25,2.0299 0.6875,0.016 2.375,1.4024 3.75,3.0799 3.6582,4.4632 8.1802,8.8902 9.0809,8.8902 0.4313,0 1.0699,0.9 1.4191,2 0.3491,1.1 1.2491,2 2,2 0.7508,0 1.6339,0.8465 1.9623,1.8812 0.7778,2.4506 3.9776,6.1188 5.3376,6.1188 0.5859,0 1.3462,0.7875 1.6895,1.75 0.3433,0.9625 2.598,3.325 5.0106,5.25 2.4125,1.925 4.6673,4.2875 5.0106,5.25 0.3433,0.9625 1.2142,1.75 1.9354,1.75 0.7212,0 1.8775,1.3669 2.5696,3.0376 0.692,1.6708 1.7516,2.8733 2.3547,2.6722 0.60306,-0.201 2.42406,1.4696 4.04656,3.7123 1.6226,2.2428 3.5426,4.6725 4.2666,5.3993 0.7241,0.7268 1.3165,1.9643 1.3165,2.75 0,0.7857 0.45,1.4286 1,1.4286 0.55,0 1,0.675 1,1.5 0,0.825 0.4439,1.5 0.9865,1.5 0.5427,0 1.6846,1.6875 2.5376,3.75 0.8531,2.0625 3.1091,5.1895 5.0135,6.949 2.1991,2.0318 3.4624,4.1245 3.4624,5.7356 0,3.3082 2.2167,11.5654 3.1047,11.5654 0.3795,0 1.2102,2.9874 1.8461,6.6386 2.9943,17.1951 13.2292,26.3314 35.0492,31.2872 5.225,1.1868 11.975,3.0074 15,4.0458 8.552,2.9358 11.0664,2.6513 13.9472,-1.5782 z"
       id="path1"
       sodipodi:nodetypes="sssssscsssssssscscsssssssssssscsssssssssssssssssssssssssssscssssssssssssssssssssssssssssssssssssssssssssssssssssssssssssssssssssssssssssssssssssscsssssssssssssscsssssssssscssssssssssssssssscssssssssssssssccssssssssssssssssssssssssscssssssssssssssssssssssssssssscssssssscssscsssssssssssssssssssssssssssssssssscsssssssssssssssssssssscsss" />
  </g>
</svg>
